<?xml version="1.0" encoding="utf-8"?>
<!-- Generator: Adobe Illustrator 18.0.0, SVG Export Plug-In . SVG Version: 6.00 Build 0)  -->
<!DOCTYPE svg PUBLIC "-//W3C//DTD SVG 1.1//EN" "http://www.w3.org/Graphics/SVG/1.1/DTD/svg11.dtd">
<svg version="1.1" id="Capa_1" xmlns="http://www.w3.org/2000/svg" xmlns:xlink="http://www.w3.org/1999/xlink" x="0px" y="0px"
	 viewBox="0 0 512 512" enable-background="new 0 0 512 512" xml:space="preserve">
<g>
	<path fill="#D80027" d="M496.8,91.9c-8.9-4.1-16.3-4.3-22.1-2.3c0.6-5-0.3-10.8-3.4-17.4c-8.5-18.1-30-19.3-43.7-7.3
		c-6.9,6-11.8,15.2-12.7,25.9c-1,0-2,0.3-2.7,0.9c-2.5,2.2,2.4-9.7-3.6-6.6c-17.4,9.1-10.6-1.2-16.8,0.6
		c-9.1,2.6-16.2,10.5-19.3,11.2c-19.8,4.5-38.1,17.9-57.5,30c17-16.3,23.7-46,2.6-62.7c-25.5-20.2-53.9,5.2-49.9,32.1
		c2.1,13.9,18.1,27.6,34.7,22.7c12.9-3.8,19.2-18.3,17.9-30.5c-2.3-21-32.3-27.4-38.9-7c-2,6.1,0.3,13.6,9.4,17
		c4.2,1.5,9.3,0.4,12.1-3.2c3.9-5.2,3.1-13.9-6.2-12c6.5,0.2,7.4,5.8,4.9,9.7c-2.2,3.4-7,5.4-13.1,1c-10.7-7.8,0.6-27,15.1-21.4
		c20.5,7.9,16.4,28.6,5.3,38.5c-18.5,16.6-41.5-6.9-35-27.3c5.9-18.4,28.9-25.8,41.4-13c20.3,20.9,9.5,43-11.7,60.3
		c-13.4,11-29.8,17.2-47,17.9c-0.2,0-0.3,0-0.5,0c-0.2,0-0.3,0-0.5,0c-17.2-0.6-33.6-6.9-47-17.9c-21.2-17.3-32-39.4-11.7-60.3
		c12.4-12.8,35.5-5.4,41.4,13c6.5,20.3-16.5,43.9-35,27.3c-11.1-9.9-15.2-30.6,5.3-38.5c14.5-5.6,25.8,13.6,15.1,21.4
		c-6,4.4-10.9,2.4-13.1-1c-2.5-3.9-1.5-9.5,4.9-9.7c-9.3-1.9-10.2,6.8-6.2,12c2.8,3.7,7.9,4.8,12.1,3.2c9.2-3.4,11.4-10.9,9.4-17
		c-6.6-20.4-36.6-14-38.9,7c-1.3,12.2,5,26.7,17.8,30.5c16.6,4.9,32.6-8.9,34.7-22.7c4-27-24.3-52.3-49.9-32.1
		C173.4,81,180,110.7,197,127c-19.4-12.1-37.7-25.5-57.5-30c-3.1-0.7-10.3-8.6-19.3-11.2c-6.2-1.8,0.6,8.6-16.8-0.6
		c-6-3.2-1.1,8.7-3.6,6.6c-0.7-0.7-1.6-0.9-2.7-0.9c-0.9-10.7-5.9-19.9-12.7-25.9c-13.7-12-35.2-10.8-43.7,7.3
		c-3.1,6.6-4,12.5-3.4,17.4c-5.8-2.1-13.3-1.9-22.1,2.3c-18.1,8.5-19.3,30-7.3,43.7c7.5,8.5,19.8,14.1,34,12.7
		c-2.1,3-3.2,6.4-1.3,8.5c2.2,2.5-9.7-2.4-6.6,3.6c9.2,17.4-3,11.7-3.6,18.1c-0.7,7.6,15.4,14.9,15.3,18
		c-0.2,85.2,75.8,115.2,135.3,150.8c52.3,31.3,66,52.1,66,71.2c0,27.8-39.8,36.6-68.2,20.5c-0.5-9.9-3.2-31-17.5-37.3
		c-14.7-6.6-23.4,9-21,20.3c-11,3.6-20.1,18.9-7.1,28.4c14.1,10.2,36.5-0.9,43.4-4.8l-0.1,0.4C208.4,465,256,454,256,412.3
		c0-22-20.3-45.8-68.9-77.5c-62.3-40.6-129.6-82.1-122.8-151.3c0-0.2,0.1-0.3,0.1-0.5c6.6,15.3,20.1,23.5,34.4,25.7
		c15.1,7.2,36.3,3.9,49.7-15.3c-3.7,7-6.4,15.3-7.5,25.2c-8.7,84.3,115,149.5,115,149.5s123.8-65.3,115-149.5
		c-1-10-3.7-18.2-7.5-25.2c13.4,19.1,34.6,22.4,49.7,15.2c14.3-2.2,27.7-10.4,34.4-25.7c0,0.2,0.1,0.3,0.1,0.5
		c6.8,69.1-60.6,110.7-122.8,151.3c-48.6,31.7-68.9,55.5-68.9,77.5c0,41.6,47.3,52.7,79.2,33.8c7.9,4.2,28.9,14,42.4,4.2
		c13-9.4,3.9-24.8-7.1-28.4c2.4-11.3-6.4-26.9-21-20.3c-14.6,6.5-17.1,28.3-17.5,37.9c-28.3,15.2-67,6.4-67-21.1
		c0-19.1,13.7-39.8,66-71.2c59.5-35.6,135.5-65.6,135.3-150.8c0-3.2,16-10.5,15.4-18c-0.6-6.4-12.7-0.7-3.6-18.1
		c3.2-6-8.8-1.1-6.6-3.6c1.9-2.1,0.8-5.5-1.3-8.5c14.2,1.4,26.5-4.2,34-12.7C516.1,121.9,514.9,100.4,496.8,91.9z M418,111.7
		c1.1,3,2.6,6,4.4,9.1c-1.8-0.6-3.5-1.2-5.3-1.7c-17.2-14.5-43.1-19.7-71-2.6C375.2,98.6,400.4,100.6,418,111.7z M409.6,139.7
		c6.3,1.5,12.6,4.6,18.3,9.2c2.7,7.3,3.3,14.7,2,21.5c-2-5.7-5.6-10.7-9.9-14.5C418.5,149.9,414.7,144.1,409.6,139.7z M413.8,158.8
		c0.6,5.6-1.7,11.1-8.3,14.3c-6,2.9-14.9,0.6-16.5-5.8c0.2-1.3,0.5-2.6,1.1-3.8C395.2,152.9,405.9,153.3,413.8,158.8z M165.9,116.5
		c-27.9-17.2-53.8-11.9-71,2.6c-1.8,0.5-3.6,1-5.3,1.7c1.8-3.1,3.3-6.1,4.4-9.1C111.6,100.6,136.8,98.6,165.9,116.5z M92.1,155.8
		c-4.3,3.8-7.9,8.9-9.9,14.5c-1.3-6.7-0.7-14.2,2-21.5c5.7-4.6,12-7.6,18.3-9.2C97.2,144.1,93.5,149.9,92.1,155.8z M121.9,163.5
		c0.6,1.2,0.9,2.5,1.1,3.8c-1.6,6.4-10.5,8.8-16.5,5.8c-6.7-3.2-8.9-8.7-8.4-14.3C106.1,153.3,116.8,152.9,121.9,163.5z M51.9,146.2
		c2.6-0.8,5.2-1.8,7.7-3.1c-2.6,2.9-5,5.9-6.8,9C50.9,155.4,52.3,150.4,51.9,146.2z M61.2,149.9c-0.8,4-1.3,8.2-1.1,12.4
		c0,0.5,0.1,0.9,0.1,1.4c-7.5,15.2-8.4,34.5,2.7,55C47.3,190.7,50.1,166.6,61.2,149.9z M52.3,138.7c-9.5,4.1-21.5,5.4-34.2-2.8
		c-17.4-11.2-7.8-46.7,18.2-36.3c10.9,4.4,11.1,23.7-4.4,24c8,3.9,15.3-1.5,17.7-8.4c1-2.8,1.3-5.7,1-8.6c4.3,1.5,9.1,1.7,13.3,0.2
		c6.8-2.5,12.2-9.7,8.4-17.7c-0.3,15.4-19.6,15.3-24,4.4c-10.5-26.1,25-35.6,36.2-18.2c4.1,6.4,5.8,12.5,6,18.4
		c-3.8,2.9-6.7,7.1-5.4,8.3c1,0.9,2.6,1.3,4.3,1.4c-0.5,2.1-1.3,4.2-2.1,6.1c-0.1,0.2-0.2,0.3-0.2,0.5
		C76.5,119.1,66.1,132.8,52.3,138.7z M72.1,137.8c3.8-3.2,8-5.8,12.4-7.8c0.1-0.1,0.3-0.1,0.4-0.2c-2.8,3.9-5.2,8.2-7,12.6
		c-3.5,2.6-6.8,5.7-9.8,9.1C69,146.9,70.3,142.3,72.1,137.8z M68.3,170.6c1.7-4.1,3.8-7.7,6-11c-0.4,9.3,1.8,18.3,6.4,25.5
		c0.7,4.3,2.4,8.7,5.4,13C76.4,192.9,70.4,182.5,68.3,170.6z M92.8,188.4c-0.3-0.2-0.6-0.4-0.8-0.7c-4.9-7-4.6-15.3-0.7-21.7
		c0.2-0.3,0.4-0.6,0.6-0.9c1.1,4.7,7.2,13.6,12.7,16.9c11.4,7,29.4-12.4,22-23.7c-6.6-10-16.4-11.6-25.2-8.2c1.9-3,4.6-5.7,7.7-7.6
		c3.7-2.2,8.1-3.3,12.4-2.8c5.8,1.5,10.9,4.5,14.7,8.9c2.4,3.3,4.5,7.5,6,12.8C150.1,190.4,113.1,203.8,92.8,188.4z M143.5,139.2
		c-8.1-6.8-16.8-8.5-24.8-7.2c-8.4-1.4-17.4-0.7-25.9,2.4c3-3.5,6.7-6.8,10.9-9.6c17.4-1.8,34.4,4.1,42.3,16.8
		C145.2,140.8,144.4,140,143.5,139.2z M256,185.8c-28.4-25.5-81.5-31-104.5,2.3c0.8-1.4,1.7-2.7,2.3-4.2
		c10.8-24.1,1.5-61.1-35.5-66.2c2.6-0.9,5.3-1.6,8.2-2.2c47.1-10.1,84.6,44.9,129,36.9c0.2,0,0.3,0,0.5,0c0.2,0,0.3,0,0.5,0
		c44.5,8,81.9-47,129-36.9c2.9,0.6,5.6,1.4,8.2,2.2c-37,5.1-46.3,42.1-35.5,66.2c0.7,1.5,1.5,2.7,2.3,4.1
		C337.5,154.8,284.4,160.3,256,185.8z M366,141.6c7.9-12.7,24.9-18.6,42.3-16.8c4.3,2.8,7.9,6.1,10.9,9.6
		c-8.5-3.1-17.6-3.9-25.9-2.4c-8-1.4-16.7,0.4-24.8,7.2C367.6,140,366.8,140.8,366,141.6z M419.9,187.7c-0.3,0.2-0.5,0.5-0.8,0.7
		c-20.3,15.4-57.3,2-49.3-27c1.5-5.3,3.6-9.6,6-12.8c3.8-4.4,8.9-7.4,14.7-8.9c4.4-0.5,8.7,0.6,12.4,2.8c3.1,1.9,5.8,4.5,7.7,7.6
		c-8.9-3.4-18.6-1.8-25.2,8.2c-7.4,11.3,10.5,30.7,22,23.7c5.5-3.3,11.6-12.2,12.7-16.9c0.2,0.3,0.4,0.6,0.6,0.9
		C424.5,172.4,424.9,180.7,419.9,187.7z M425.8,198.1c3-4.2,4.7-8.6,5.4-13c4.6-7.2,6.8-16.3,6.4-25.5c2.3,3.3,4.3,6.9,6,11
		C441.6,182.5,435.5,192.9,425.8,198.1z M434,142.4c-1.8-4.4-4.1-8.7-7-12.6c0.1,0.1,0.3,0.1,0.4,0.2c4.4,2,8.6,4.7,12.4,7.8
		c1.8,4.4,3.1,9,3.9,13.7C440.8,148.1,437.5,145.1,434,142.4z M449.1,218.7c11.1-20.5,10.2-39.8,2.7-55c0-0.5,0.1-0.9,0.1-1.4
		c0.1-4.2-0.3-8.4-1.1-12.4C461.9,166.6,464.7,190.7,449.1,218.7z M459.1,152c-1.8-3.1-4.1-6-6.8-9c2.6,1.3,5.2,2.3,7.7,3.1
		C459.6,150.4,461.1,155.4,459.1,152z M493.9,135.9c-12.6,8.2-24.7,6.9-34.2,2.8c-13.8-5.9-24.2-19.6-35-28.9
		c-0.1-0.2-0.2-0.3-0.2-0.5c-0.8-1.9-1.5-4-2.1-6.1c1.7-0.1,3.3-0.5,4.3-1.4c1.4-1.3-1.6-5.5-5.4-8.3c0.2-5.8,1.9-12,6-18.4
		c11.2-17.4,46.7-7.8,36.2,18.2c-4.4,10.9-23.7,11.1-24-4.4c-3.8,8,1.5,15.3,8.4,17.7c4.2,1.5,9,1.4,13.3-0.2c-0.3,2.9,0,5.9,1,8.6
		c2.5,6.9,9.7,12.2,17.7,8.4c-15.4-0.3-15.3-19.6-4.4-24C501.7,89.1,511.2,124.7,493.9,135.9z"/>
</g>
</svg>
